<svg xmlns="http://www.w3.org/2000/svg" viewBox="14.254 108.917 538.35 90.559"><defs><linearGradient id="g11" gradientUnits="userSpaceOnUse" x1="0" y1="0" x2="1" y2="0" gradientTransform="matrix(0 -99.078 -99.078 0 78.831 174.995)"><stop offset="0" stop-color="#e22614"></stop><stop offset="0.563" stop-color="#e02614"></stop><stop offset="0.762" stop-color="#cb2112"></stop><stop offset="0.931" stop-color="#bd1e10"></stop><stop offset="1" stop-color="#b91d10"></stop></linearGradient><linearGradient id="g12" gradientUnits="userSpaceOnUse" x1="0" y1="0" x2="1" y2="0" gradientTransform="matrix(0 -99.086 -99.086 0 30.639 174.995)"><stop offset="0" stop-color="#e22614"></stop><stop offset="0.563" stop-color="#e02614"></stop><stop offset="0.762" stop-color="#cb2112"></stop><stop offset="0.931" stop-color="#bd1e10"></stop><stop offset="1" stop-color="#b91d10"></stop></linearGradient><linearGradient id="g13" gradientUnits="userSpaceOnUse" x1="0" y1="0" x2="1" y2="0" gradientTransform="matrix(0 -99.079 -99.079 0 241.392 174.995)"><stop offset="0" stop-color="#e22614"></stop><stop offset="0.563" stop-color="#e02614"></stop><stop offset="0.762" stop-color="#cb2112"></stop><stop offset="0.931" stop-color="#bd1e10"></stop><stop offset="1" stop-color="#b91d10"></stop></linearGradient><linearGradient id="g14" gradientUnits="userSpaceOnUse" x1="0" y1="0" x2="1" y2="0" gradientTransform="matrix(0 -99.079 -99.079 0 154.111 174.995)"><stop offset="0" stop-color="#e22614"></stop><stop offset="0.563" stop-color="#e02614"></stop><stop offset="0.762" stop-color="#cb2112"></stop><stop offset="0.931" stop-color="#bd1e10"></stop><stop offset="1" stop-color="#b91d10"></stop></linearGradient><linearGradient id="g15" gradientUnits="userSpaceOnUse" x1="0" y1="0" x2="1" y2="0" gradientTransform="matrix(0 -99.079 -99.079 0 414.614 174.995)"><stop offset="0" stop-color="#e22614"></stop><stop offset="0.563" stop-color="#e02614"></stop><stop offset="0.762" stop-color="#cb2112"></stop><stop offset="0.931" stop-color="#bd1e10"></stop><stop offset="1" stop-color="#b91d10"></stop></linearGradient><linearGradient id="g16" gradientUnits="userSpaceOnUse" x1="0" y1="0" x2="1" y2="0" gradientTransform="matrix(0 -99.079 -99.079 0 329.181 174.995)"><stop offset="0" stop-color="#e22614"></stop><stop offset="0.563" stop-color="#e02614"></stop><stop offset="0.762" stop-color="#cb2112"></stop><stop offset="0.931" stop-color="#bd1e10"></stop><stop offset="1" stop-color="#b91d10"></stop></linearGradient><linearGradient id="g17" gradientUnits="userSpaceOnUse" x1="0" y1="0" x2="1" y2="0" gradientTransform="matrix(0 -99.079 -99.079 0 506.828 174.995)"><stop offset="0" stop-color="#e22614"></stop><stop offset="0.563" stop-color="#e02614"></stop><stop offset="0.762" stop-color="#cb2112"></stop><stop offset="0.931" stop-color="#bd1e10"></stop><stop offset="1" stop-color="#b91d10"></stop></linearGradient></defs><g transform="matrix(1 0 0 -1 0 283.465)"><path d="M73.129 174.546C72.881 174.546 72.808 174.437 72.808 174.437L72.808 174.437C72.808 174.437 37.535 125.542 37.398 125.361L37.398 125.361C37.244 125.154 37.341 124.975 37.407 124.911L37.407 124.911C56.17 106.363 67.671 93.724 81.085 77.215L81.085 77.215C81.349 76.89 81.627 76.583 82.363 76.583L82.363 76.583L120.168 76.583C120.415 76.583 120.369 76.735 120.248 76.857L120.248 76.857C104.513 93.89 88.979 109.124 71.21 125.104L71.21 125.104L107.003 174.215C107.003 174.215 107.138 174.548 106.862 174.548L106.862 174.548C106.601 174.548 76.147 174.546 73.129 174.546" fill="url(#g11)"></path><path d="M14.826 174.546C14.51 174.546 14.254 174.29 14.254 173.975L14.254 173.975C14.254 173.66 14.256 128.426 14.256 128.426L14.256 128.426L14.256 105.323C14.256 104.829 14.558 105.215 14.558 105.215L14.558 105.215L46.88 150.502C46.88 150.502 47.024 150.628 47.024 151.007L47.024 151.007L47.024 173.975C47.024 174.29 46.768 174.546 46.452 174.546L46.452 174.546Z" fill="url(#g12)"></path><path d="M201.253 174.546C200.937 174.546 200.681 174.29 200.681 173.975L200.681 173.975L200.681 86.624C200.681 85.17 201.861 83.992 203.314 83.992L203.314 83.992L203.314 83.989L231.207 83.989C231.523 83.989 231.78 84.246 231.78 84.561L231.78 84.561C231.78 84.877 231.777 109.191 231.777 109.191L231.777 109.191C231.777 109.191 248.512 111.569 259.466 113.144L259.466 113.144C271.578 114.881 282.103 117.536 282.103 128.953L282.103 128.953L282.103 158.741C282.103 168.161 275.798 174.546 262.101 174.546L262.101 174.546ZM231.777 125.072L231.777 158.633L244.379 158.633C247.897 158.633 250.757 156.892 250.757 153.08L250.757 153.08L250.757 132.358C250.757 127.703 247.727 126.839 244.379 126.425L244.379 126.425C241.489 126.068 233.218 125.027 231.943 124.867L231.943 124.867C231.934 124.866 231.926 124.865 231.918 124.865L231.918 124.865C231.826 124.865 231.777 124.94 231.777 125.072" fill="url(#g13)"></path><path d="M115.579 174.546C115.263 174.546 115.007 174.29 115.007 173.975L115.007 173.975L115.007 93.531C115.007 93.225 115.17 93.101 115.17 93.101L115.17 93.101L123.582 84.171C123.582 84.171 123.747 83.989 123.993 83.989L123.993 83.989L192.643 83.989C192.959 83.989 193.216 84.246 193.216 84.56L193.216 84.56L193.216 99.325C193.216 99.641 192.959 99.896 192.643 99.896L192.643 99.896L147.802 99.897C146.866 99.897 146.103 100.804 146.103 101.919L146.103 101.919L146.103 122.77L171.301 122.767C171.617 122.767 171.871 123.025 171.871 123.34L171.871 123.34L171.871 135.864C171.871 136.18 171.617 136.436 171.301 136.436L171.301 136.436C171.099 136.436 146.103 136.436 146.103 136.436L146.103 136.436L146.103 158.633L192.643 158.633C192.959 158.633 193.216 158.89 193.216 159.205L193.216 159.205L193.216 173.975C193.216 174.29 192.959 174.546 192.643 174.546L192.643 174.546Z" fill="url(#g14)"></path><path d="M376.084 174.546C375.769 174.546 375.512 174.29 375.512 173.975L375.512 173.975L375.512 86.624C375.512 85.175 376.698 84 378.146 83.992L378.146 83.992L378.148 83.989L378.16 83.989L453.145 83.989C453.461 83.989 453.716 84.246 453.716 84.56L453.716 84.56L453.716 99.321C453.716 99.638 453.461 99.897 453.145 99.897L453.145 99.897L408.307 99.897C407.371 99.897 406.609 100.804 406.609 101.919L406.609 101.919L406.609 122.77L431.805 122.772C432.121 122.772 432.377 123.027 432.377 123.344L432.377 123.344L432.377 135.864C432.377 136.18 432.121 136.436 431.805 136.436L431.805 136.436C431.659 136.436 406.609 136.436 406.609 136.436L406.609 136.436L406.609 158.633L453.145 158.633C453.461 158.633 453.716 158.89 453.716 159.205L453.716 159.205L453.716 173.975C453.716 174.29 453.461 174.546 453.145 174.546L453.145 174.546Z" fill="url(#g15)"></path><path d="M290.48 174.546C290.258 174.546 290.078 174.367 290.078 174.145L290.078 174.145L290.078 86.624C290.078 85.17 291.258 83.992 292.713 83.992L292.713 83.992L292.713 83.989L367.711 83.989C368.027 83.989 368.284 84.246 368.284 84.56L368.284 84.56L368.284 99.326C368.284 99.642 368.027 99.897 367.711 99.897L367.711 99.897L322.872 99.897C321.935 99.897 321.172 100.804 321.172 101.919L321.172 101.919C321.172 101.919 321.174 173.924 321.174 174.145L321.174 174.145C321.174 174.367 320.994 174.546 320.773 174.546L320.773 174.546Z" fill="url(#g16)"></path><path d="M461.552 174.546C461.237 174.546 460.981 174.29 460.981 173.975L460.981 173.975L460.981 86.624C460.981 85.17 462.161 83.992 463.615 83.992L463.615 83.992L463.615 83.989L491.512 83.989C491.828 83.989 492.084 84.246 492.084 84.561L492.084 84.561C492.084 84.86 492.082 106.771 492.082 109.007L492.082 109.007C492.082 109.126 492.134 109.197 492.231 109.212L492.231 109.212C492.763 109.288 494.514 109.551 495.877 109.732L495.877 109.732C496.252 109.78 496.514 109.546 496.569 109.482L496.569 109.482C503.967 100.836 509.191 92.426 513.554 84.619L513.554 84.619C513.758 84.255 514.095 83.989 514.832 83.989L514.832 83.989L552.38 83.989C552.627 83.989 552.769 84.216 552.604 84.382L552.604 84.382C542.062 96.968 535.332 104.456 525.33 114.058L525.33 114.058C534.936 115.931 542.416 119.329 542.416 128.953L542.416 128.953L542.416 158.741C542.416 168.161 536.111 174.546 522.411 174.546L522.411 174.546ZM492.082 158.633L504.687 158.633C508.205 158.633 511.067 156.892 511.067 153.08L511.067 153.08L511.067 132.358C511.067 127.703 508.035 126.839 504.687 126.425L504.687 126.425C501.55 126.036 492.082 124.845 492.082 124.845L492.082 124.845Z" fill="url(#g17)"></path></g></svg>